HIERARCHY
ROOT Hips
{
	OFFSET 0.000000 0.000000 0.000000
	CHANNELS 6 Xposition Yposition Zposition Xrotation Yrotation Zrotation
	JOINT LeftUpLeg_virtual
	{
		OFFSET 0.000000 0.000000 0.000000
		CHANNELS 3 Xrotation Yrotation Zrotation
		JOINT LeftUpLeg
		{
			OFFSET 11.394100 -6.187798 -0.413800
			CHANNELS 3 Xrotation Yrotation Zrotation
			JOINT LeftLeg
			{
				OFFSET 0.430247 -32.302673 3.732800
				CHANNELS 3 Xrotation Yrotation Zrotation
				JOINT LeftFoot
				{
					OFFSET -0.430247 -48.264931 -6.423300
					CHANNELS 3 Xrotation Yrotation Zrotation
					JOINT LeftToeBase
					{
						OFFSET 4.230900 -16.068199 23.438400
						CHANNELS 3 Xrotation Yrotation Zrotation
						JOINT LeftToe_End
						{
							OFFSET 4.510700 0.695400 19.974600
							CHANNELS 3 Xrotation Yrotation Zrotation
							End Site
							{
								OFFSET 0 0 0
							}
						}
					}
				}
			}
		}
	}
	JOINT RightUpLeg_virtual
	{
		OFFSET 0.000000 0.000000 0.000000
		CHANNELS 3 Xrotation Yrotation Zrotation
		JOINT RightUpLeg
		{
			OFFSET -11.333700 -6.187798 -0.413800
			CHANNELS 3 Xrotation Yrotation Zrotation
			JOINT RightLeg
			{
				OFFSET -0.430392 -32.302628 3.733000
				CHANNELS 3 Xrotation Yrotation Zrotation
				JOINT RightFoot
				{
					OFFSET 0.430392 -48.264973 -6.423500
					CHANNELS 3 Xrotation Yrotation Zrotation
					JOINT RightToeBase
					{
						OFFSET -4.230900 -16.068199 23.438400
						CHANNELS 3 Xrotation Yrotation Zrotation
						JOINT RightToe_End
						{
							OFFSET -4.510700 0.695400 19.974600
							CHANNELS 3 Xrotation Yrotation Zrotation
							End Site
							{
								OFFSET 0 0 0
							}
						}
					}
				}
			}
		}
	}
	JOINT Spine_virtual
	{
		OFFSET 0.000000 0.000000 0.000000
		CHANNELS 3 Xrotation Yrotation Zrotation
		JOINT Spine
		{
			OFFSET -0.002400 12.777504 0.315300
			CHANNELS 3 Xrotation Yrotation Zrotation
			JOINT Spine1
			{
				OFFSET -0.002067 5.816869 0.032633
				CHANNELS 3 Xrotation Yrotation Zrotation
				JOINT Spine1_split
				{
					OFFSET -0.002067 5.816869 0.032633
					CHANNELS 3 Xrotation Yrotation Zrotation
					JOINT Spine2
					{
						OFFSET -0.002067 5.816869 0.032633
						CHANNELS 3 Xrotation Yrotation Zrotation
						JOINT Neck_virtual
						{
							OFFSET 0.000000 0.000000 0.000000
							CHANNELS 3 Xrotation Yrotation Zrotation
							JOINT Neck
							{
								OFFSET -0.003700 21.199493 -0.826900
								CHANNELS 3 Xrotation Yrotation Zrotation
								JOINT Head
								{
									OFFSET 0.000000 20.442200 4.834800
									CHANNELS 3 Xrotation Yrotation Zrotation
									JOINT HeadTop_End
									{
										OFFSET 0.000000 34.668396 4.968400
										CHANNELS 3 Xrotation Yrotation Zrotation
										End Site
										{
											OFFSET 0 0 0
										}
									}
								}
							}
						}
						JOINT LeftShoulder_virtual
						{
							OFFSET 0.000000 0.000000 0.000000
							CHANNELS 3 Xrotation Yrotation Zrotation
							JOINT LeftShoulder
							{
								OFFSET 3.288150 8.794197 -1.372250
								CHANNELS 3 Xrotation Yrotation Zrotation
								JOINT LeftShoulder_split
								{
									OFFSET 3.288150 8.794197 -1.372250
									CHANNELS 3 Xrotation Yrotation Zrotation
									JOINT LeftArm
									{
										OFFSET 11.953299 -2.279007 -0.146200
										CHANNELS 3 Xrotation Yrotation Zrotation
										JOINT LeftForeArm
										{
											OFFSET 18.448900 0.000000 0.000000
											CHANNELS 3 Xrotation Yrotation Zrotation
											JOINT LeftHand
											{
												OFFSET 29.527798 0.000000 0.000000
												CHANNELS 3 Xrotation Yrotation Zrotation
												End Site
												{
													OFFSET 0 0 0
												}
											}
										}
									}
								}
							}
						}
						JOINT RightShoulder_virtual
						{
							OFFSET 0.000000 0.000000 0.000000
							CHANNELS 3 Xrotation Yrotation Zrotation
							JOINT RightShoulder
							{
								OFFSET -3.249400 8.794197 -1.372250
								CHANNELS 3 Xrotation Yrotation Zrotation
								JOINT RightShoulder_split
								{
									OFFSET -3.249400 8.794197 -1.372250
									CHANNELS 3 Xrotation Yrotation Zrotation
									JOINT RightArm
									{
										OFFSET -11.953299 -2.279007 -0.146200
										CHANNELS 3 Xrotation Yrotation Zrotation
										JOINT RightForeArm
										{
											OFFSET -18.448900 0.000000 0.000000
											CHANNELS 3 Xrotation Yrotation Zrotation
											JOINT RightHand
											{
												OFFSET -29.527802 0.000000 0.000000
												CHANNELS 3 Xrotation Yrotation Zrotation
												End Site
												{
													OFFSET 0 0 0
												}
											}
										}
									}
								}
							}
						}
					}
				}
			}
		}
	}
}
MOTION
Frames: 4
Frame Time: 0.03333333
-10.120549 126.554718 0.653339 0.000000 0.000000 0.000000 -18.541583 5.475476 2.599018 -98.045781 14.715706 24.389769 102.416487 -10.826235 5.268626 -2.074002 8.918350 10.074663 9.260659 -1.483104 -4.598005 0.000000 0.000000 0.000000 -18.315338 -1.076792 1.166485 -101.631746 -2.737067 -8.435804 100.070133 -5.890772 1.609647 -7.291140 3.856168 19.049881 -20.666605 0.351353 -48.478979 0.000000 0.000000 0.000000 -9.554022 0.292870 -0.855567 -2.111595 8.816074 5.565029 18.384911 1.170734 1.661837 -0.002929 -1.184085 0.156715 0.000000 0.000000 0.000000 19.239876 3.100707 1.385691 3.879276 11.286755 -5.842674 1.130983 -44.613918 -8.687017 0.000000 0.000000 0.000000 24.489700 0.881846 3.504943 -1.976413 -2.037528 22.755557 -1.555559 1.403983 -5.767025 -39.957563 -41.624802 15.470920 -22.616906 -5.910807 -15.032374 0.000000 0.000000 0.000000 21.613686 1.204981 2.914542 0.237280 19.714863 -32.267245 2.619267 -3.637924 5.063750 -39.394701 18.243270 -16.048409 -44.139029 42.338218 32.607644 0.000000 0.000000 0.000000 
-9.208814 125.616165 0.370375 0.000000 0.000000 0.000000 -18.443427 5.380626 2.750473 -98.416039 13.595031 23.783301 100.903744 -11.279550 4.510659 -1.621639 7.957213 8.771873 9.042249 -1.368724 -4.566057 0.000000 0.000000 0.000000 -19.014074 -0.286406 1.426965 -101.700540 -2.806475 -10.448805 100.121018 -6.661165 2.476723 -9.855220 3.528360 16.420620 -18.009850 -0.344481 -49.771701 0.000000 0.000000 0.000000 -11.042330 -0.022539 -0.974402 -2.076134 8.690873 5.744271 18.542845 0.952718 1.628175 0.129101 -0.677022 0.185048 0.000000 0.000000 0.000000 19.154477 2.817023 1.497559 4.259237 11.020391 -5.227862 0.395916 -43.874212 -7.930259 0.000000 0.000000 0.000000 24.344924 0.668209 3.549276 -1.997752 -2.359724 23.404328 -4.050846 0.346477 -5.411348 -40.867774 -40.285057 16.405898 -21.526502 -3.548653 -14.192392 0.000000 0.000000 0.000000 21.224753 0.978945 2.958415 0.943650 21.828026 -31.038360 1.913695 -3.468965 3.921612 -42.676969 18.439127 -13.415787 -44.854190 42.647343 32.707604 0.000000 0.000000 0.000000 
-8.187181 125.062576 0.303741 0.000000 0.000000 0.000000 -18.722887 4.914860 2.714842 -99.897616 11.895665 24.561760 100.757243 -12.025001 4.017657 1.108527 5.956938 7.027527 8.135685 -1.332316 -4.114499 0.000000 0.000000 0.000000 -20.060310 0.265975 1.525701 -102.468581 -2.016427 -12.935997 100.929261 -6.606227 3.218511 -8.790764 4.081685 13.450015 -16.153582 -0.933736 -49.955901 0.000000 0.000000 0.000000 -12.320100 0.236935 -1.230457 -1.682823 8.155011 5.303607 18.357008 0.424816 1.340066 0.426207 -0.259218 0.054313 0.000000 0.000000 0.000000 18.312055 2.387015 1.324992 3.353910 10.910523 -3.566325 -2.313979 -44.327043 -6.389747 0.000000 0.000000 0.000000 23.350603 0.208795 3.363702 -1.353754 -3.460048 26.517453 -5.191074 -1.130387 -4.392180 -43.014161 -38.602727 14.370207 -20.391209 -3.930198 -13.290381 0.000000 0.000000 0.000000 19.821434 0.523711 2.749453 1.739045 24.422578 -29.104211 2.251241 -4.736813 3.494460 -46.870589 20.694556 -10.283332 -44.870368 41.972738 31.898206 0.000000 0.000000 0.000000 
-7.100955 125.169601 0.360756 0.000000 0.000000 0.000000 -19.466241 4.084728 2.367282 -101.618209 9.730805 26.377309 101.415537 -12.977925 3.923638 5.095164 3.246333 5.737130 6.733585 -1.426527 -3.319237 0.000000 0.000000 0.000000 -21.315605 0.894430 1.395460 -104.134785 -0.007775 -15.190711 101.404308 -5.191518 3.061773 -3.515894 5.177388 10.604792 -13.816828 -2.212763 -48.482185 0.000000 0.000000 0.000000 -13.216613 0.468366 -1.922017 -1.020392 7.416545 4.528100 18.056532 -0.278029 0.799686 0.571275 0.043643 -0.199605 0.000000 0.000000 0.000000 17.166014 1.892994 0.880637 1.260663 10.848916 -1.410713 -6.175723 -45.630445 -4.765710 0.000000 0.000000 0.000000 22.060054 -0.379593 2.931756 -0.134139 -4.653888 30.830572 -6.157407 -2.232406 -3.159034 -45.619308 -36.224038 10.327656 -19.076580 -7.613290 -12.340115 0.000000 0.000000 0.000000 18.055988 -0.052944 2.253959 2.545373 27.117982 -27.012276 4.341172 -6.137918 3.473664 -51.374709 23.994697 -7.044129 -44.325506 40.902448 30.576868 0.000000 0.000000 0.000000 
